<svg width="1087" height="287" viewBox="0 0 1087 287" fill="none" xmlns="http://www.w3.org/2000/svg">
<path d="M1034.09 212.917C1025.78 212.917 1017.92 212.278 1010.51 211C1003.1 209.594 996.771 207.677 991.531 205.248V175.531C997.282 178.215 1003.67 180.388 1010.7 182.05C1017.73 183.711 1024.32 184.542 1030.45 184.542C1036.84 184.542 1041.63 184.031 1044.83 183.008C1048.15 181.858 1049.81 179.366 1049.81 175.531C1049.81 172.847 1048.86 170.738 1046.94 169.204C1045.15 167.671 1042.27 166.265 1038.31 164.986C1034.48 163.708 1029.43 162.111 1023.16 160.193C1014.86 157.509 1008.27 154.569 1003.42 151.374C998.56 148.179 995.045 144.28 992.873 139.679C990.828 135.078 989.805 129.454 989.805 122.807C989.805 110.665 994.087 101.462 1002.65 95.1994C1011.34 88.8087 1024.19 85.6133 1041.19 85.6133C1047.96 85.6133 1054.93 86.1884 1062.08 87.3388C1069.37 88.4891 1075.25 89.7673 1079.72 91.1732V121.082C1073.72 118.653 1067.96 116.928 1062.47 115.905C1056.97 114.883 1051.8 114.372 1046.94 114.372C1041.31 114.372 1036.52 114.819 1032.56 115.714C1028.6 116.608 1026.62 118.909 1026.62 122.616C1026.62 125.811 1028.28 128.176 1031.6 129.709C1035.05 131.115 1041.12 132.969 1049.81 135.269C1059.91 137.954 1067.58 141.213 1072.82 145.047C1078.19 148.882 1081.83 153.355 1083.75 158.468C1085.67 163.453 1086.62 169.14 1086.62 175.531C1086.62 186.779 1082.28 195.854 1073.59 202.756C1064.9 209.53 1051.73 212.917 1034.09 212.917Z" fill="url(#paint0_linear_92_2504)"/>
<path d="M863.141 211V87.5303H893.816L940.405 152.908V87.5303H976.449V211H945.581L899.185 145.814V211H863.141Z" fill="url(#paint1_linear_92_2504)"/>
<path d="M809.781 211V87.5303H845.824V211H809.781Z" fill="url(#paint2_linear_92_2504)"/>
<path d="M624.449 212.917C602.082 212.917 585.018 207.421 573.259 196.429C561.5 185.437 555.621 169.907 555.621 149.84C555.621 129.134 561.373 113.285 572.876 102.293C584.379 91.1732 601.506 85.6133 624.258 85.6133C631.926 85.6133 638.764 86.1884 644.772 87.3388C650.779 88.4891 656.531 90.0868 662.027 92.1319V123.574C651.035 118.717 639.276 116.289 626.75 116.289C615.119 116.289 606.491 118.973 600.867 124.341C595.243 129.582 592.432 138.081 592.432 149.84C592.432 161.344 595.371 169.652 601.251 174.764C607.258 179.749 615.886 182.241 627.133 182.241C633.268 182.241 639.212 181.666 644.964 180.516C650.843 179.366 656.659 177.576 662.41 175.148V206.782C656.914 208.699 651.099 210.169 644.964 211.192C638.956 212.342 632.118 212.917 624.449 212.917Z" fill="url(#paint3_linear_92_2504)"/>
<path d="M454.42 211V87.5303H547.98V115.138H490.464V135.269H540.887V163.261H490.464V183.392H547.98V211H454.42Z" fill="url(#paint4_linear_92_2504)"/>
<path d="M332.721 211V87.5303H396.948C407.045 87.5303 415.289 89.3836 421.68 93.0902C428.199 96.7969 433.056 101.973 436.251 108.62C439.447 115.138 441.044 122.743 441.044 131.435C441.044 139.743 438.935 147.092 434.717 153.483C430.627 159.746 425.131 164.539 418.229 167.862C419.635 169.012 420.849 170.418 421.872 172.08C422.894 173.614 424.045 175.787 425.323 178.598L439.51 211H401.933L388.896 181.283C387.873 178.982 386.595 177.384 385.061 176.49C383.655 175.467 381.61 174.956 378.926 174.956H368.765V211H332.721ZM368.765 147.348H387.745C392.986 147.348 397.012 146.006 399.824 143.322C402.764 140.51 404.233 136.547 404.233 131.435C404.233 120.57 399.121 115.138 388.896 115.138H368.765V147.348Z" fill="url(#paint5_linear_92_2504)"/>
<path d="M214.954 211V87.5303H278.606C288.703 87.5303 297.011 89.5753 303.53 93.6654C310.176 97.6277 315.097 103.06 318.292 109.962C321.488 116.864 323.085 124.533 323.085 132.969C323.085 141.66 321.232 149.393 317.525 156.167C313.819 162.941 308.578 168.245 301.804 172.08C295.03 175.914 287.042 177.832 277.839 177.832H250.998V211H214.954ZM250.998 150.224H269.595C275.219 150.224 279.373 148.626 282.057 145.43C284.869 142.235 286.275 138.081 286.275 132.969C286.275 127.472 284.997 123.127 282.44 119.931C279.884 116.736 275.922 115.138 270.553 115.138H250.998V150.224Z" fill="url(#paint6_linear_92_2504)"/>
<path d="M109.918 211V87.5303H203.479V115.138H145.962V135.269H196.385V163.261H145.962V183.392H203.479V211H109.918Z" fill="url(#paint7_linear_92_2504)"/>
<path d="M8.62751 211V87.5303H44.6713V183.392H100.271V211H8.62751Z" fill="url(#paint8_linear_92_2504)"/>
<mask id="path-10-inside-1_92_2504" fill="white">
<path d="M8.62751 211V87.5307H44.6713V183.392H100.271V211H8.62751ZM109.918 211V87.5307H203.479V115.139H145.962V135.27H196.385V163.261H145.962V183.392H203.479V211H109.918ZM214.954 211V87.5307H278.606C288.703 87.5307 297.011 89.5757 303.53 93.6658C310.176 97.6281 315.097 103.06 318.292 109.962C321.488 116.864 323.085 124.533 323.085 132.969C323.085 141.66 321.232 149.393 317.525 156.167C313.819 162.942 308.578 168.246 301.804 172.08C295.03 175.915 287.042 177.832 277.839 177.832H250.998V211H214.954ZM250.998 150.224H269.595C275.219 150.224 279.373 148.626 282.057 145.431C284.869 142.236 286.275 138.082 286.275 132.969C286.275 127.473 284.997 123.127 282.44 119.932C279.884 116.736 275.922 115.139 270.553 115.139H250.998V150.224ZM332.721 211V87.5307H396.948C407.045 87.5307 415.289 89.384 421.68 93.0906C428.199 96.7973 433.056 101.974 436.251 108.62C439.446 115.139 441.044 122.744 441.044 131.435C441.044 139.743 438.935 147.092 434.717 153.483C430.627 159.746 425.131 164.539 418.229 167.862C419.635 169.013 420.849 170.419 421.872 172.08C422.894 173.614 424.045 175.787 425.323 178.599L439.51 211H401.933L388.896 181.283C387.873 178.982 386.595 177.385 385.061 176.49C383.655 175.467 381.61 174.956 378.926 174.956H368.765V211H332.721ZM368.765 147.348H387.745C392.986 147.348 397.012 146.006 399.824 143.322C402.764 140.51 404.233 136.548 404.233 131.435C404.233 120.571 399.121 115.139 388.896 115.139H368.765V147.348ZM454.42 211V87.5307H547.98V115.139H490.464V135.27H540.887V163.261H490.464V183.392H547.98V211H454.42Z"/>
</mask>
<path d="M8.62751 211V87.5307H44.6713V183.392H100.271V211H8.62751ZM109.918 211V87.5307H203.479V115.139H145.962V135.27H196.385V163.261H145.962V183.392H203.479V211H109.918ZM214.954 211V87.5307H278.606C288.703 87.5307 297.011 89.5757 303.53 93.6658C310.176 97.6281 315.097 103.06 318.292 109.962C321.488 116.864 323.085 124.533 323.085 132.969C323.085 141.66 321.232 149.393 317.525 156.167C313.819 162.942 308.578 168.246 301.804 172.08C295.03 175.915 287.042 177.832 277.839 177.832H250.998V211H214.954ZM250.998 150.224H269.595C275.219 150.224 279.373 148.626 282.057 145.431C284.869 142.236 286.275 138.082 286.275 132.969C286.275 127.473 284.997 123.127 282.44 119.932C279.884 116.736 275.922 115.139 270.553 115.139H250.998V150.224ZM332.721 211V87.5307H396.948C407.045 87.5307 415.289 89.384 421.68 93.0906C428.199 96.7973 433.056 101.974 436.251 108.62C439.446 115.139 441.044 122.744 441.044 131.435C441.044 139.743 438.935 147.092 434.717 153.483C430.627 159.746 425.131 164.539 418.229 167.862C419.635 169.013 420.849 170.419 421.872 172.08C422.894 173.614 424.045 175.787 425.323 178.599L439.51 211H401.933L388.896 181.283C387.873 178.982 386.595 177.385 385.061 176.49C383.655 175.467 381.61 174.956 378.926 174.956H368.765V211H332.721ZM368.765 147.348H387.745C392.986 147.348 397.012 146.006 399.824 143.322C402.764 140.51 404.233 136.548 404.233 131.435C404.233 120.571 399.121 115.139 388.896 115.139H368.765V147.348ZM454.42 211V87.5307H547.98V115.139H490.464V135.27H540.887V163.261H490.464V183.392H547.98V211H454.42Z" fill="url(#paint9_linear_92_2504)"/>
<path d="M8.62751 211H5.63185V213.996H8.62751V211ZM8.62751 87.5307V84.535H5.63185V87.5307H8.62751ZM44.6713 87.5307H47.667V84.535H44.6713V87.5307ZM44.6713 183.392H41.6757V186.388H44.6713V183.392ZM100.271 183.392H103.267V180.396H100.271V183.392ZM100.271 211V213.996H103.267V211H100.271ZM11.6232 211V87.5307H5.63185V211H11.6232ZM8.62751 90.5264H44.6713V84.535H8.62751V90.5264ZM41.6757 87.5307V183.392H47.667V87.5307H41.6757ZM44.6713 186.388H100.271V180.396H44.6713V186.388ZM97.2752 183.392V211H103.267V183.392H97.2752ZM100.271 208.004H8.62751V213.996H100.271V208.004ZM109.918 211H106.923V213.996H109.918V211ZM109.918 87.5307V84.535H106.923V87.5307H109.918ZM203.479 87.5307H206.475V84.535H203.479V87.5307ZM203.479 115.139V118.134H206.475V115.139H203.479ZM145.962 115.139V112.143H142.967V115.139H145.962ZM145.962 135.27H142.967V138.265H145.962V135.27ZM196.385 135.27H199.381V132.274H196.385V135.27ZM196.385 163.261V166.257H199.381V163.261H196.385ZM145.962 163.261V160.265H142.967V163.261H145.962ZM145.962 183.392H142.967V186.388H145.962V183.392ZM203.479 183.392H206.475V180.396H203.479V183.392ZM203.479 211V213.996H206.475V211H203.479ZM112.914 211V87.5307H106.923V211H112.914ZM109.918 90.5264H203.479V84.535H109.918V90.5264ZM200.483 87.5307V115.139H206.475V87.5307H200.483ZM203.479 112.143H145.962V118.134H203.479V112.143ZM142.967 115.139V135.27H148.958V115.139H142.967ZM145.962 138.265H196.385V132.274H145.962V138.265ZM193.39 135.27V163.261H199.381V135.27H193.39ZM196.385 160.265H145.962V166.257H196.385V160.265ZM142.967 163.261V183.392H148.958V163.261H142.967ZM145.962 186.388H203.479V180.396H145.962V186.388ZM200.483 183.392V211H206.475V183.392H200.483ZM203.479 208.004H109.918V213.996H203.479V208.004ZM214.954 211H211.958V213.996H214.954V211ZM214.954 87.5307V84.535H211.958V87.5307H214.954ZM303.53 93.6658L301.938 96.2033L301.966 96.2215L301.996 96.2389L303.53 93.6658ZM318.292 109.962L321.011 108.704L318.292 109.962ZM317.525 156.167L320.153 157.605L317.525 156.167ZM301.804 172.08L303.28 174.687L301.804 172.08ZM250.998 177.832V174.836H248.002V177.832H250.998ZM250.998 211V213.996H253.993V211H250.998ZM250.998 150.224H248.002V153.22H250.998V150.224ZM282.057 145.431L279.808 143.452L279.785 143.478L279.763 143.504L282.057 145.431ZM282.44 119.932L284.779 118.06V118.06L282.44 119.932ZM250.998 115.139V112.143H248.002V115.139H250.998ZM217.95 211V87.5307H211.958V211H217.95ZM214.954 90.5264H278.606V84.535H214.954V90.5264ZM278.606 90.5264C288.312 90.5264 296.023 92.4926 301.938 96.2033L305.122 91.1283C297.999 86.6589 289.094 84.535 278.606 84.535V90.5264ZM301.996 96.2389C308.134 99.898 312.637 104.876 315.574 111.221L321.011 108.704C317.557 101.244 312.219 95.3582 305.064 91.0927L301.996 96.2389ZM315.574 111.221C318.568 117.687 320.09 124.92 320.09 132.969H326.081C326.081 124.146 324.408 116.041 321.011 108.704L315.574 111.221ZM320.09 132.969C320.09 141.222 318.334 148.449 314.897 154.729L320.153 157.605C324.13 150.337 326.081 142.099 326.081 132.969H320.09ZM314.897 154.729C311.461 161.01 306.621 165.911 300.329 169.473L303.28 174.687C310.535 170.58 316.177 164.873 320.153 157.605L314.897 154.729ZM300.329 169.473C294.08 173.01 286.619 174.836 277.839 174.836V180.828C287.464 180.828 295.98 178.819 303.28 174.687L300.329 169.473ZM277.839 174.836H250.998V180.828H277.839V174.836ZM248.002 177.832V211H253.993V177.832H248.002ZM250.998 208.004H214.954V213.996H250.998V208.004ZM250.998 153.22H269.595V147.228H250.998V153.22ZM269.595 153.22C275.778 153.22 280.917 151.446 284.351 147.358L279.763 143.504C277.829 145.807 274.66 147.228 269.595 147.228V153.22ZM284.306 147.41C287.692 143.562 289.27 138.656 289.27 132.969H283.279C283.279 137.507 282.046 140.909 279.808 143.452L284.306 147.41ZM289.27 132.969C289.27 127.026 287.886 121.944 284.779 118.06L280.101 121.803C282.107 124.31 283.279 127.92 283.279 132.969H289.27ZM284.779 118.06C281.488 113.946 276.526 112.143 270.553 112.143V118.134C275.318 118.134 278.28 119.527 280.101 121.803L284.779 118.06ZM270.553 112.143H250.998V118.134H270.553V112.143ZM248.002 115.139V150.224H253.993V115.139H248.002ZM332.721 211H329.725V213.996H332.721V211ZM332.721 87.5307V84.535H329.725V87.5307H332.721ZM421.68 93.0907L420.177 95.682L420.188 95.6884L420.199 95.6947L421.68 93.0907ZM436.251 108.62L433.551 109.918L433.556 109.928L433.561 109.939L436.251 108.62ZM434.717 153.483L432.217 151.833L432.213 151.839L432.209 151.845L434.717 153.483ZM418.229 167.862L416.93 165.163L412.693 167.203L416.332 170.181L418.229 167.862ZM421.872 172.08L419.321 173.65L419.349 173.697L419.379 173.742L421.872 172.08ZM425.323 178.599L428.067 177.397L428.059 177.378L428.05 177.359L425.323 178.599ZM439.51 211V213.996H444.092L442.255 209.798L439.51 211ZM401.933 211L399.19 212.204L399.976 213.996H401.933V211ZM388.896 181.283L391.639 180.08L391.636 180.073L391.633 180.066L388.896 181.283ZM385.061 176.49L383.299 178.913L383.421 179.001L383.552 179.078L385.061 176.49ZM368.765 174.956V171.96H365.769V174.956H368.765ZM368.765 211V213.996H371.76V211H368.765ZM368.765 147.348H365.769V150.344H368.765V147.348ZM399.824 143.322L401.892 145.489L401.895 145.487L399.824 143.322ZM368.765 115.139V112.143H365.769V115.139H368.765ZM335.717 211V87.5307H329.725V211H335.717ZM332.721 90.5264H396.948V84.535H332.721V90.5264ZM396.948 90.5264C406.703 90.5264 414.381 92.3199 420.177 95.682L423.183 90.4993C416.198 86.4481 407.388 84.535 396.948 84.535V90.5264ZM420.199 95.6947C426.198 99.1056 430.625 103.831 433.551 109.918L438.951 107.322C435.487 100.117 430.2 94.489 423.161 90.4865L420.199 95.6947ZM433.561 109.939C436.52 115.974 438.049 123.112 438.049 131.435H444.04C444.04 122.376 442.373 114.304 438.941 107.302L433.561 109.939ZM438.049 131.435C438.049 139.209 436.084 145.974 432.217 151.833L437.218 155.133C441.786 148.211 444.04 140.278 444.04 131.435H438.049ZM432.209 151.845C428.425 157.639 423.352 162.071 416.93 165.163L419.529 170.562C426.91 167.007 432.829 161.853 437.226 155.121L432.209 151.845ZM416.332 170.181C417.461 171.105 418.46 172.252 419.321 173.65L424.423 170.51C423.239 168.586 421.809 166.921 420.126 165.544L416.332 170.181ZM419.379 173.742C420.273 175.082 421.346 177.089 422.596 179.839L428.05 177.359C426.743 174.484 425.516 172.146 424.364 170.419L419.379 173.742ZM422.579 179.8L436.766 212.202L442.255 209.798L428.067 177.397L422.579 179.8ZM439.51 208.004H401.933V213.996H439.51V208.004ZM404.676 209.796L391.639 180.08L386.152 182.487L399.19 212.204L404.676 209.796ZM391.633 180.066C390.458 177.423 388.832 175.221 386.571 173.902L383.552 179.078C384.358 179.548 385.288 180.541 386.158 182.5L391.633 180.066ZM386.823 174.067C384.695 172.519 381.921 171.96 378.926 171.96V177.952C381.3 177.952 382.616 178.416 383.299 178.913L386.823 174.067ZM378.926 171.96H368.765V177.952H378.926V171.96ZM365.769 174.956V211H371.76V174.956H365.769ZM368.765 208.004H332.721V213.996H368.765V208.004ZM368.765 150.344H387.745V144.352H368.765V150.344ZM387.745 150.344C393.482 150.344 398.352 148.868 401.892 145.489L397.755 141.155C395.672 143.144 392.489 144.352 387.745 144.352V150.344ZM401.895 145.487C405.569 141.972 407.229 137.142 407.229 131.435H401.238C401.238 135.953 399.958 139.048 397.753 141.157L401.895 145.487ZM407.229 131.435C407.229 125.585 405.856 120.64 402.58 117.16C399.273 113.645 394.518 112.143 388.896 112.143V118.134C393.499 118.134 396.413 119.348 398.218 121.266C400.055 123.218 401.238 126.421 401.238 131.435H407.229ZM388.896 112.143H368.765V118.134H388.896V112.143ZM365.769 115.139V147.348H371.76V115.139H365.769ZM454.42 211H451.424V213.996H454.42V211ZM454.42 87.5307V84.535H451.424V87.5307H454.42ZM547.98 87.5307H550.976V84.535H547.98V87.5307ZM547.98 115.139V118.134H550.976V115.139H547.98ZM490.464 115.139V112.143H487.468V115.139H490.464ZM490.464 135.27H487.468V138.265H490.464V135.27ZM540.887 135.27H543.882V132.274H540.887V135.27ZM540.887 163.261V166.257H543.882V163.261H540.887ZM490.464 163.261V160.265H487.468V163.261H490.464ZM490.464 183.392H487.468V186.388H490.464V183.392ZM547.98 183.392H550.976V180.396H547.98V183.392ZM547.98 211V213.996H550.976V211H547.98ZM457.415 211V87.5307H451.424V211H457.415ZM454.42 90.5264H547.98V84.535H454.42V90.5264ZM544.985 87.5307V115.139H550.976V87.5307H544.985ZM547.98 112.143H490.464V118.134H547.98V112.143ZM487.468 115.139V135.27H493.459V115.139H487.468ZM490.464 138.265H540.887V132.274H490.464V138.265ZM537.891 135.27V163.261H543.882V135.27H537.891ZM540.887 160.265H490.464V166.257H540.887V160.265ZM487.468 163.261V183.392H493.459V163.261H487.468ZM490.464 186.388H547.98V180.396H490.464V186.388ZM544.985 183.392V211H550.976V183.392H544.985ZM547.98 208.004H454.42V213.996H547.98V208.004Z" fill="#B5DD18" mask="url(#path-10-inside-1_92_2504)"/>
<path d="M623.326 213.097C600.958 213.097 583.895 207.601 572.136 196.609C560.377 185.617 554.498 170.087 554.498 150.021C554.498 129.314 560.249 113.465 571.753 102.473C583.256 91.3534 600.383 85.7935 623.134 85.7935C630.803 85.7935 637.641 86.3686 643.649 87.519C649.656 88.6693 655.408 90.267 660.904 92.312V123.755C649.911 118.898 638.152 116.469 625.627 116.469C613.995 116.469 605.368 119.153 599.744 124.521C594.12 129.762 591.308 138.262 591.308 150.021C591.308 161.524 594.248 169.832 600.128 174.944C606.135 179.929 614.762 182.422 626.01 182.422C632.145 182.422 638.089 181.846 643.84 180.696C649.72 179.546 655.535 177.756 661.287 175.328V206.962C655.791 208.879 649.975 210.349 643.84 211.372C637.833 212.522 630.995 213.097 623.326 213.097Z" fill="url(#paint10_linear_92_2504)"/>
<path d="M808.657 211.18V87.7107H844.701V211.18H808.657Z" fill="url(#paint11_linear_92_2504)"/>
<path d="M862.017 211.18V87.7107H892.693L939.282 153.088V87.7107H975.326V211.18H944.458L898.061 145.994V211.18H862.017Z" fill="url(#paint12_linear_92_2504)"/>
<path d="M1032.97 213.097C1024.66 213.097 1016.8 212.458 1009.39 211.18C1001.97 209.774 995.648 207.857 990.407 205.428V175.711C996.159 178.395 1002.55 180.568 1009.58 182.23C1016.61 183.891 1023.19 184.722 1029.33 184.722C1035.72 184.722 1040.51 184.211 1043.71 183.189C1047.03 182.038 1048.69 179.546 1048.69 175.711C1048.69 173.027 1047.73 170.918 1045.81 169.384C1044.03 167.851 1041.15 166.445 1037.19 165.167C1033.35 163.888 1028.3 162.291 1022.04 160.374C1013.73 157.689 1007.15 154.75 1002.29 151.554C997.437 148.359 993.922 144.461 991.749 139.859C989.704 135.258 988.682 129.634 988.682 122.988C988.682 110.845 992.963 101.643 1001.53 95.3796C1010.22 88.9888 1023.06 85.7935 1040.06 85.7935C1046.84 85.7935 1053.8 86.3686 1060.96 87.519C1068.25 88.6693 1074.13 89.9474 1078.6 91.3534V121.262C1072.59 118.834 1066.84 117.108 1061.34 116.086C1055.85 115.063 1050.67 114.552 1045.81 114.552C1040.19 114.552 1035.4 114.999 1031.44 115.894C1027.47 116.789 1025.49 119.089 1025.49 122.796C1025.49 125.991 1027.15 128.356 1030.48 129.89C1033.93 131.296 1040 133.149 1048.69 135.45C1058.79 138.134 1066.46 141.393 1071.7 145.227C1077.07 149.062 1080.71 153.535 1082.63 158.648C1084.54 163.633 1085.5 169.321 1085.5 175.711C1085.5 186.959 1081.16 196.034 1072.46 202.936C1063.77 209.71 1050.61 213.097 1032.97 213.097Z" fill="url(#paint13_linear_92_2504)"/>
<path fill-rule="evenodd" clip-rule="evenodd" d="M573.828 104.633L573.822 104.639C563.074 114.909 557.493 129.874 557.493 150.021C557.493 169.477 563.172 184.129 574.182 194.421C585.201 204.721 601.42 210.102 623.326 210.102C630.851 210.102 637.495 209.537 643.277 208.43L643.312 208.423L643.348 208.417C648.58 207.545 653.56 206.341 658.291 204.809V179.732C653.715 181.419 649.092 182.721 644.424 183.634C638.471 184.825 632.332 185.417 626.01 185.417C614.365 185.417 604.953 182.841 598.215 177.25L598.188 177.228L598.162 177.205C591.367 171.296 588.313 161.971 588.313 150.021C588.313 137.875 591.207 128.391 597.689 122.342C604.092 116.238 613.609 113.473 625.627 113.473C636.974 113.473 647.741 115.407 657.908 119.284V94.4169C653.167 92.7649 648.226 91.4456 643.085 90.4612C637.303 89.354 630.659 88.7891 623.134 88.7891C600.831 88.7891 584.581 94.2393 573.835 104.627L573.828 104.633ZM660.904 92.312C655.408 90.267 649.656 88.6693 643.649 87.519C637.641 86.3686 630.803 85.7935 623.134 85.7935C600.383 85.7935 583.256 91.3534 571.753 102.473C560.249 113.465 554.498 129.314 554.498 150.021C554.498 170.087 560.377 185.617 572.136 196.609C583.895 207.601 600.958 213.097 623.326 213.097C630.995 213.097 637.833 212.522 643.84 211.372C649.975 210.349 655.791 208.879 661.287 206.962V175.328C660.29 175.749 659.292 176.15 658.291 176.533C653.518 178.357 648.701 179.745 643.84 180.696C638.089 181.846 632.145 182.422 626.01 182.422C614.762 182.422 606.135 179.929 600.128 174.944C594.248 169.832 591.308 161.524 591.308 150.021C591.308 138.262 594.12 129.762 599.744 124.521C605.368 119.153 613.995 116.469 625.627 116.469C637.022 116.469 647.782 118.479 657.908 122.499C658.913 122.897 659.911 123.316 660.904 123.755V92.312ZM811.653 90.7063V208.184H841.705V90.7063H811.653ZM892.693 87.7107H862.017V211.18H898.061V145.994L944.458 211.18H975.326V87.7107H939.282V153.088L892.693 87.7107ZM942.277 90.7063V162.454L891.149 90.7063H865.013V208.184H895.066V136.62L946.003 208.184H972.33V90.7063H942.277ZM1030.48 129.89C1027.15 128.356 1025.49 125.991 1025.49 122.796C1025.49 119.089 1027.47 116.789 1031.44 115.894C1035.4 114.999 1040.19 114.552 1045.81 114.552C1050.67 114.552 1055.85 115.063 1061.34 116.086C1065.92 116.937 1070.67 118.276 1075.6 120.102C1076.6 120.469 1077.59 120.856 1078.6 121.262V91.3534C1074.13 89.9474 1068.25 88.6693 1060.96 87.519C1053.8 86.3686 1046.84 85.7935 1040.06 85.7935C1023.06 85.7935 1010.22 88.9888 1001.53 95.3796C992.963 101.643 988.682 110.845 988.682 122.988C988.682 129.634 989.704 135.258 991.749 139.859C993.922 144.461 997.437 148.359 1002.29 151.554C1007.15 154.75 1013.73 157.689 1022.04 160.374C1028.3 162.291 1033.35 163.888 1037.19 165.167C1041.15 166.445 1044.03 167.851 1045.81 169.384C1047.73 170.918 1048.69 173.027 1048.69 175.711C1048.69 179.546 1047.03 182.038 1043.71 183.189C1040.51 184.211 1035.72 184.722 1029.33 184.722C1023.19 184.722 1016.61 183.891 1009.58 182.23C1003.75 180.851 998.355 179.121 993.403 177.039C992.386 176.611 991.387 176.169 990.407 175.711V205.428C995.648 207.857 1001.97 209.774 1009.39 211.18C1016.8 212.458 1024.66 213.097 1032.97 213.097C1050.61 213.097 1063.77 209.71 1072.46 202.936C1081.16 196.034 1085.5 186.959 1085.5 175.711C1085.5 169.321 1084.54 163.633 1082.63 158.648C1080.71 153.535 1077.07 149.062 1071.7 145.227C1066.46 141.393 1058.79 138.134 1048.69 135.45C1040 133.149 1033.93 131.296 1030.48 129.89ZM1047.92 138.345C1039.23 136.044 1032.99 134.15 1029.35 132.664L1029.28 132.638L1029.22 132.61C1027.21 131.679 1025.49 130.403 1024.29 128.688C1023.07 126.949 1022.5 124.942 1022.5 122.796C1022.5 120.39 1023.15 118.143 1024.71 116.336C1026.24 114.558 1028.38 113.513 1030.78 112.972C1035.02 112.014 1040.05 111.556 1045.81 111.556C1050.88 111.556 1056.24 112.089 1061.89 113.14C1066.33 113.966 1070.9 115.227 1075.6 116.913V93.5918C1071.61 92.4814 1066.59 91.4398 1060.49 90.478L1060.49 90.4767C1053.47 89.3498 1046.67 88.7891 1040.06 88.7891C1023.36 88.7891 1011.26 91.9423 1003.3 97.793L1003.3 97.7976C995.623 103.409 991.677 111.643 991.677 122.988C991.677 129.326 992.652 134.499 994.473 138.611C996.38 142.634 999.488 146.122 1003.94 149.052C1008.49 152.042 1014.79 154.88 1022.94 157.516C1029.2 159.431 1034.26 161.033 1038.12 162.32C1042.19 163.633 1045.49 165.175 1047.73 167.077C1050.4 169.235 1051.69 172.231 1051.69 175.711C1051.69 178.055 1051.18 180.259 1049.94 182.118C1048.68 183.999 1046.85 185.269 1044.69 186.019L1044.65 186.031L1044.62 186.042C1040.97 187.209 1035.8 187.718 1029.33 187.718C1022.92 187.718 1016.11 186.851 1008.89 185.145C1003.36 183.839 998.2 182.219 993.403 180.279V203.477C998.019 205.422 1003.51 207.016 1009.92 208.232C1017.14 209.476 1024.82 210.102 1032.97 210.102C1050.31 210.102 1062.68 206.758 1070.61 200.581C1078.57 194.257 1082.51 186.055 1082.51 175.711C1082.51 169.618 1081.59 164.305 1079.83 159.723L1079.83 159.712L1079.82 159.7C1078.15 155.252 1074.94 151.227 1069.96 147.665L1069.94 147.655L1069.93 147.645C1065.12 144.124 1057.85 140.984 1047.92 138.345ZM808.657 211.18H844.701V87.7107H808.657V211.18Z" fill="#FAF26F"/>
<circle cx="734.369" cy="150.369" r="68.4184" fill="url(#paint14_linear_92_2504)"/>
<path fill-rule="evenodd" clip-rule="evenodd" d="M734.152 209.166C766.521 209.166 792.762 182.841 792.762 150.369C792.762 117.896 766.521 91.5715 734.152 91.5715C701.782 91.5715 675.541 117.896 675.541 150.369C675.541 182.841 701.782 209.166 734.152 209.166ZM734.152 218.787C771.818 218.787 802.353 188.155 802.353 150.369C802.353 112.582 771.818 81.9502 734.152 81.9502C696.485 81.9502 665.95 112.582 665.95 150.369C665.95 188.155 696.485 218.787 734.152 218.787Z" fill="url(#paint15_linear_92_2504)"/>
<circle cx="733.717" cy="150.152" r="58.2716" stroke="url(#paint16_linear_92_2504)" stroke-width="0.745424"/>
<path d="M756.46 114.044C758.467 115.654 760.139 120.67 760.724 122.976C768.374 125.492 775.397 131.405 771.635 140.714C767.873 150.023 756.585 145.872 748.433 144.237C740.282 142.601 735.641 145.243 738.902 147.382C742.163 149.52 762.537 143.471 768.876 156.188C774.143 166.755 766.995 170.906 760.097 173.926C753.199 176.945 756.424 187.987 744.169 186.758C730.374 185.374 735.014 166.126 735.641 160.339C736.268 154.552 737.648 153.043 735.014 153.672C732.381 154.301 731.628 166 732.381 175.31C732.983 182.757 735.725 193.383 737.648 198.08H730.374C729.454 193.425 727.941 182.354 729.245 175.31C730.876 166.503 732.882 154.049 731.126 153.043C729.371 152.036 727.489 158.075 728.493 162.855C729.496 167.636 728.367 182.983 717.456 182.732C706.545 182.48 708.677 171.41 707.423 169.523C706.169 167.636 693.126 168.139 695.133 155.181C696.711 144.991 709.932 145.243 718.334 145.872C726.737 146.501 728.493 148.891 730.374 147.382C732.255 145.872 729.872 143.104 722.598 143.104C715.324 143.104 699.021 143.104 698.017 133.292C697.014 123.479 707.423 121.592 711.562 119.579C715.701 117.567 714.823 108.76 725.608 110.018C736.394 111.276 736.239 127.631 735.767 130.398C735.294 133.166 730.374 147.004 735.014 143.104C739.655 139.204 733.008 128.008 738.651 118.196C744.295 108.383 753.952 112.031 756.46 114.044Z" fill="url(#paint17_radial_92_2504)"/>
<path fill-rule="evenodd" clip-rule="evenodd" d="M731.467 153.51C731.37 153.28 731.251 153.119 731.105 153.036C730.378 152.62 729.63 153.401 729.071 154.799C729.048 154.854 729.027 154.911 729.005 154.968C728.247 156.984 727.872 160.157 728.451 162.914C728.458 162.949 728.465 162.984 728.472 163.02C728.966 165.517 728.901 170.661 727.295 175.094C726.978 175.968 726.602 176.814 726.158 177.607C724.411 180.728 721.621 183.023 717.327 182.924C708.93 182.731 708.198 176.187 707.758 172.258C707.622 171.041 707.514 170.076 707.215 169.626C706.9 169.152 705.844 168.828 704.469 168.406C700.334 167.136 693.309 164.978 694.827 155.189C696.418 144.931 709.743 145.184 718.212 145.817C722.285 146.122 724.808 146.836 726.542 147.327C728.413 147.857 729.363 148.126 730.347 147.337C732.243 145.817 729.841 143.031 722.51 143.031C715.179 143.031 698.746 143.031 697.735 133.153C696.896 124.958 703.974 122.254 708.792 120.413C709.782 120.035 710.676 119.694 711.386 119.349C712.796 118.664 713.629 117.198 714.532 115.606C716.303 112.487 718.347 108.885 725.544 109.724C731.017 110.361 733.695 114.851 734.944 119.508C736.176 124.101 736.019 128.857 735.782 130.24C735.675 130.871 735.337 132.074 734.933 133.511C734.651 134.517 734.336 135.638 734.045 136.759C733.649 138.282 733.298 139.804 733.132 141.036C733.131 141.048 733.129 141.06 733.127 141.072C732.829 143.332 733.165 144.591 735.024 143.031C735.289 142.809 735.518 142.563 735.714 142.294C735.732 142.27 735.75 142.245 735.767 142.22C736.667 140.934 736.856 139.159 736.792 137.064C736.759 135.992 736.659 134.836 736.554 133.618C736.463 132.564 736.368 131.463 736.309 130.331C736.132 126.94 736.276 123.267 737.812 119.706C738.065 119.119 738.356 118.535 738.69 117.956C744.378 108.077 754.111 111.75 756.639 113.776C758.662 115.397 760.347 120.446 760.937 122.768C768.648 125.301 775.726 131.253 771.934 140.625C769.983 145.448 766.023 146.682 761.519 146.519C758.542 146.412 755.328 145.695 752.299 145C752.187 144.974 752.075 144.948 751.963 144.923C750.786 144.653 749.64 144.389 748.549 144.171C740.333 142.525 735.656 145.184 738.943 147.337C739.909 147.97 742.369 147.89 745.522 147.788C747.461 147.725 749.662 147.653 751.94 147.734C754.973 147.841 758.142 148.218 761.007 149.245C764.384 150.455 767.339 152.567 769.153 156.202C774.462 166.84 767.257 171.02 760.305 174.059C757.556 175.261 756.402 177.725 755.248 180.189C753.484 183.957 751.719 187.725 744.251 186.977C739.839 186.535 737.297 184.281 735.904 181.224C735.095 179.448 734.673 177.4 734.497 175.278C734.241 172.189 734.507 168.945 734.855 166.155C735.005 164.949 735.172 163.828 735.318 162.842C735.461 161.878 735.584 161.042 735.656 160.381C735.847 158.617 736.108 157.248 736.306 156.213C736.32 156.138 736.334 156.065 736.347 155.993C736.349 155.987 736.35 155.981 736.351 155.974C736.765 153.792 736.811 153.243 735.024 153.669C734.803 153.722 734.596 153.852 734.401 154.051C734.233 154.223 734.074 154.446 733.925 154.716C733.859 154.836 733.795 154.965 733.732 155.103C732.781 157.202 732.261 161.328 732.126 165.935C732.05 168.548 732.098 171.316 732.262 173.955C732.294 174.459 732.33 174.959 732.369 175.452C732.533 177.474 732.854 179.729 733.273 182.037C734.154 186.892 735.471 191.981 736.679 195.629C737.025 196.676 737.363 197.605 737.678 198.375H730.347C729.541 194.3 728.283 185.342 728.832 178.411C728.915 177.371 729.038 176.377 729.209 175.452C729.31 174.911 729.411 174.356 729.514 173.791C730.145 170.298 730.795 166.415 731.238 162.956C731.622 159.953 731.852 157.271 731.778 155.444C731.777 155.41 731.775 155.376 731.774 155.342C731.736 154.545 731.638 153.918 731.467 153.51ZM725.964 182.352C725.871 182.442 725.777 182.53 725.682 182.617C723.533 184.569 720.724 185.749 717.265 185.669C714.035 185.595 711.488 184.704 709.565 183.14C707.665 181.595 706.626 179.596 706.023 177.746C705.429 175.922 705.213 174.088 705.065 172.778C705.058 172.71 705.05 172.643 705.043 172.578C704.989 172.102 704.948 171.732 704.903 171.425C704.594 171.316 704.195 171.193 703.662 171.029L703.596 171.009C702.247 170.594 700.326 170.004 698.484 169C696.581 167.961 694.616 166.406 693.321 163.976C692.017 161.528 691.549 158.486 692.126 154.767C692.622 151.567 694.071 149.076 696.162 147.241C698.203 145.45 700.73 144.388 703.284 143.754C703.553 143.687 703.824 143.624 704.096 143.566C699.713 141.967 695.585 139.002 695.015 133.434C694.709 130.439 695.269 127.888 696.479 125.755C697.667 123.659 699.384 122.138 701.131 121.002C702.87 119.87 704.742 119.055 706.346 118.418C706.95 118.178 707.488 117.973 707.971 117.789C708.878 117.443 709.593 117.17 710.196 116.877C710.5 116.729 710.885 116.376 711.503 115.37C711.645 115.138 711.825 114.824 712.03 114.464C712.505 113.63 713.12 112.553 713.735 111.696C714.745 110.289 716.128 108.848 718.208 107.906C720.277 106.968 722.782 106.638 725.859 106.996C731.741 107.682 734.953 111.8 736.659 116.017C739.982 110.641 744.568 108.734 748.8 108.657C752.926 108.581 756.606 110.237 758.345 111.63C759.204 112.319 759.884 113.242 760.41 114.1C760.954 114.989 761.432 115.974 761.839 116.929C762.388 118.218 762.845 119.54 763.184 120.655C766.872 122.066 770.509 124.288 772.923 127.467C775.774 131.222 776.724 136.081 774.467 141.659C773.292 144.561 771.442 146.578 769.095 147.801C768.188 148.274 767.239 148.611 766.273 148.842C768.393 150.29 770.248 152.269 771.597 154.972C773.062 157.907 773.77 160.606 773.721 163.106C773.672 165.649 772.843 167.804 771.533 169.601C769.038 173.027 764.828 175.076 761.396 176.576C760.359 177.03 759.637 177.786 758.945 178.946C758.587 179.545 758.262 180.21 757.899 180.981C757.844 181.098 757.788 181.218 757.73 181.341C757.425 181.992 757.085 182.72 756.713 183.417C755.815 185.102 754.553 186.983 752.385 188.271C750.199 189.569 747.456 190.057 743.98 189.709C741.211 189.431 738.943 188.535 737.147 187.159C738.131 191.282 739.279 195.068 740.207 197.329L741.761 201.12H728.103L727.666 198.91C727.182 196.468 726.554 192.403 726.212 188.031C726.069 186.194 725.972 184.264 725.964 182.352ZM728.474 146.985C728.474 146.985 728.468 146.98 728.458 146.968C728.47 146.979 728.475 146.985 728.474 146.985ZM740.265 144.911C740.266 144.911 740.275 144.919 740.29 144.934C740.272 144.919 740.265 144.912 740.265 144.911ZM740.199 146.997C740.168 147.024 740.148 147.036 740.146 147.035C740.143 147.034 740.159 147.021 740.199 146.997Z" fill="url(#paint18_linear_92_2504)"/>
<path d="M738.427 140.158L757.951 123.723C757.641 122.112 756.433 117.617 752.372 115.506C744.935 111.639 740.286 119.373 739.356 125.657C738.612 130.684 738.427 137.419 738.427 140.158Z" fill="url(#paint19_linear_92_2504)"/>
<path d="M725.966 150.523L705.272 165.458C703.785 164.765 699.719 162.499 698.66 158.047C696.72 149.891 705.353 147.266 711.675 147.894C716.731 148.396 723.309 149.856 725.966 150.523Z" fill="url(#paint20_linear_92_2504)"/>
<path d="M726.59 141.692L715.208 118.85C716.133 117.494 719.029 113.85 723.593 113.527C731.955 112.936 733.146 121.88 731.501 128.016C730.185 132.924 727.678 139.178 726.59 141.692Z" fill="url(#paint21_linear_92_2504)"/>
<path d="M737.75 153.43L758.338 168.51C759.83 167.828 763.912 165.59 765.002 161.146C766.999 153.004 758.385 150.318 752.059 150.902C746.999 151.369 740.411 152.782 737.75 153.43Z" fill="url(#paint22_linear_92_2504)"/>
<defs>
<linearGradient id="paint0_linear_92_2504" x1="546" y1="105.183" x2="546" y2="193.086" gradientUnits="userSpaceOnUse">
<stop stop-color="#E4F001"/>
<stop offset="0.484375" stop-color="#94D800"/>
<stop offset="1" stop-color="#426900"/>
</linearGradient>
<linearGradient id="paint1_linear_92_2504" x1="546" y1="105.183" x2="546" y2="193.086" gradientUnits="userSpaceOnUse">
<stop stop-color="#E4F001"/>
<stop offset="0.484375" stop-color="#94D800"/>
<stop offset="1" stop-color="#426900"/>
</linearGradient>
<linearGradient id="paint2_linear_92_2504" x1="546" y1="105.183" x2="546" y2="193.086" gradientUnits="userSpaceOnUse">
<stop stop-color="#E4F001"/>
<stop offset="0.484375" stop-color="#94D800"/>
<stop offset="1" stop-color="#426900"/>
</linearGradient>
<linearGradient id="paint3_linear_92_2504" x1="546" y1="105.183" x2="546" y2="193.086" gradientUnits="userSpaceOnUse">
<stop stop-color="#E4F001"/>
<stop offset="0.484375" stop-color="#94D800"/>
<stop offset="1" stop-color="#426900"/>
</linearGradient>
<linearGradient id="paint4_linear_92_2504" x1="546" y1="105.183" x2="546" y2="193.086" gradientUnits="userSpaceOnUse">
<stop stop-color="#E4F001"/>
<stop offset="0.484375" stop-color="#94D800"/>
<stop offset="1" stop-color="#426900"/>
</linearGradient>
<linearGradient id="paint5_linear_92_2504" x1="546" y1="105.183" x2="546" y2="193.086" gradientUnits="userSpaceOnUse">
<stop stop-color="#E4F001"/>
<stop offset="0.484375" stop-color="#94D800"/>
<stop offset="1" stop-color="#426900"/>
</linearGradient>
<linearGradient id="paint6_linear_92_2504" x1="546" y1="105.183" x2="546" y2="193.086" gradientUnits="userSpaceOnUse">
<stop stop-color="#E4F001"/>
<stop offset="0.484375" stop-color="#94D800"/>
<stop offset="1" stop-color="#426900"/>
</linearGradient>
<linearGradient id="paint7_linear_92_2504" x1="546" y1="105.183" x2="546" y2="193.086" gradientUnits="userSpaceOnUse">
<stop stop-color="#E4F001"/>
<stop offset="0.484375" stop-color="#94D800"/>
<stop offset="1" stop-color="#426900"/>
</linearGradient>
<linearGradient id="paint8_linear_92_2504" x1="546" y1="105.183" x2="546" y2="193.086" gradientUnits="userSpaceOnUse">
<stop stop-color="#E4F001"/>
<stop offset="0.484375" stop-color="#94D800"/>
<stop offset="1" stop-color="#426900"/>
</linearGradient>
<linearGradient id="paint9_linear_92_2504" x1="275.5" y1="41.2563" x2="275.5" y2="245.744" gradientUnits="userSpaceOnUse">
<stop stop-color="#194F21"/>
<stop offset="0.473958" stop-color="#45AA26"/>
<stop offset="1" stop-color="#F5FA10"/>
</linearGradient>
<linearGradient id="paint10_linear_92_2504" x1="820.746" y1="91.6557" x2="820.746" y2="211.86" gradientUnits="userSpaceOnUse">
<stop stop-color="#F5BA44"/>
<stop offset="1" stop-color="#FDF874"/>
</linearGradient>
<linearGradient id="paint11_linear_92_2504" x1="820.746" y1="91.6557" x2="820.746" y2="211.86" gradientUnits="userSpaceOnUse">
<stop stop-color="#F5BA44"/>
<stop offset="1" stop-color="#FDF874"/>
</linearGradient>
<linearGradient id="paint12_linear_92_2504" x1="820.746" y1="91.6557" x2="820.746" y2="211.86" gradientUnits="userSpaceOnUse">
<stop stop-color="#F5BA44"/>
<stop offset="1" stop-color="#FDF874"/>
</linearGradient>
<linearGradient id="paint13_linear_92_2504" x1="820.746" y1="91.6557" x2="820.746" y2="211.86" gradientUnits="userSpaceOnUse">
<stop stop-color="#F5BA44"/>
<stop offset="1" stop-color="#FDF874"/>
</linearGradient>
<linearGradient id="paint14_linear_92_2504" x1="702.493" y1="208.834" x2="789.7" y2="103.02" gradientUnits="userSpaceOnUse">
<stop stop-color="#F5BA44"/>
<stop offset="0.518601" stop-color="#FFFB77"/>
<stop offset="1" stop-color="#F5BA44"/>
</linearGradient>
<linearGradient id="paint15_linear_92_2504" x1="711.27" y1="109.67" x2="740.501" y2="185.054" gradientUnits="userSpaceOnUse">
<stop stop-color="#F5BA44"/>
<stop offset="0.331101" stop-color="#FFFB77"/>
<stop offset="0.756217" stop-color="#EBD454"/>
<stop offset="1" stop-color="#F5BA44"/>
</linearGradient>
<linearGradient id="paint16_linear_92_2504" x1="683.292" y1="117.942" x2="794.805" y2="177.03" gradientUnits="userSpaceOnUse">
<stop stop-color="#D69E2D"/>
<stop offset="1" stop-color="#FFFA80"/>
</linearGradient>
<radialGradient id="paint17_radial_92_2504" cx="0" cy="0" r="1" gradientUnits="userSpaceOnUse" gradientTransform="translate(733.289 145.295) rotate(89.2663) scale(40.1115 35.3693)">
<stop stop-color="#37EB00"/>
<stop offset="1" stop-color="#0D5918"/>
</radialGradient>
<linearGradient id="paint18_linear_92_2504" x1="725.216" y1="147.399" x2="738.387" y2="156.974" gradientUnits="userSpaceOnUse">
<stop stop-color="#FFFA80"/>
<stop offset="1" stop-color="#D69E2D"/>
</linearGradient>
<linearGradient id="paint19_linear_92_2504" x1="745.864" y1="115.989" x2="753.245" y2="127.819" gradientUnits="userSpaceOnUse">
<stop stop-color="#33DC02"/>
<stop offset="1" stop-color="#34E001" stop-opacity="0"/>
</linearGradient>
<linearGradient id="paint20_linear_92_2504" x1="700.713" y1="151.852" x2="710.39" y2="161.891" gradientUnits="userSpaceOnUse">
<stop stop-color="#33DC02"/>
<stop offset="1" stop-color="#34E001" stop-opacity="0"/>
</linearGradient>
<linearGradient id="paint21_linear_92_2504" x1="729.373" y1="116.558" x2="717.898" y2="124.479" gradientUnits="userSpaceOnUse">
<stop stop-color="#33DC02"/>
<stop offset="1" stop-color="#34E001" stop-opacity="0"/>
</linearGradient>
<linearGradient id="paint22_linear_92_2504" x1="762.992" y1="154.937" x2="753.245" y2="164.908" gradientUnits="userSpaceOnUse">
<stop stop-color="#33DC02"/>
<stop offset="1" stop-color="#34E001" stop-opacity="0"/>
</linearGradient>
</defs>
</svg>
